<svg width="474" height="474" viewBox="0 0 474 474" fill="none" xmlns="http://www.w3.org/2000/svg">
<g opacity="0.6">
<rect opacity="0.2" x="0.840332" y="236.908" width="236.897" height="236.9" transform="rotate(-90 0.840332 236.908)" fill="white"/>
<path opacity="0.2" d="M1.95068 236.908L127.567 114.73L237.741 1.11848L237.741 236.908L1.95068 236.908Z" fill="white"/>
<path opacity="0.14" d="M237.74 118.829C237.74 103.371 240.785 88.0646 246.701 73.7833C252.616 59.5019 261.287 46.5256 272.217 35.5951C283.148 24.6646 296.124 15.9941 310.405 10.0786C324.687 4.16308 339.993 1.11841 355.451 1.11841C370.909 1.11841 386.216 4.16309 400.497 10.0786C414.779 15.9941 427.755 24.6647 438.685 35.5951C449.616 46.5256 458.286 59.5019 464.202 73.7833C470.117 88.0646 473.162 103.371 473.162 118.829L355.451 118.829L237.74 118.829Z" fill="white"/>
<path opacity="0.07" d="M237.74 236.908L111.533 359.662L0.840119 473.809L0.840129 236.908L237.74 236.908Z" fill="white"/>
<path opacity="0.28" d="M473.162 236.03C473.162 220.572 470.118 205.266 464.202 190.984C458.287 176.703 449.616 163.726 438.686 152.796C427.755 141.866 414.779 133.195 400.498 127.28C386.216 121.364 370.91 118.319 355.452 118.319C339.994 118.319 324.687 121.364 310.406 127.28C296.124 133.195 283.148 141.866 272.217 152.796C261.287 163.727 252.616 176.703 246.701 190.984C240.785 205.266 237.741 220.572 237.741 236.03L355.452 236.03L473.162 236.03Z" fill="white"/>
</g>
</svg>
